<?xml version="1.0" encoding="UTF-8"?>
<svg id="Layer_2" data-name="Layer 2" xmlns="http://www.w3.org/2000/svg" viewBox="0 0 209.18 209.18">
  <defs>
    <style>
      .cls-1 {
        fill: #10B981;
      }
    </style>
  </defs>
  <g id="Layer_1-2" data-name="Layer 1">
    <path class="cls-1" d="M104.59,0C46.83,0,0,46.83,0,104.59s46.83,104.59,104.59,104.59,104.59-46.83,104.59-104.59S162.35,0,104.59,0ZM91.47,185.73c.19,3.07.93,4.79,1.96,9.12.34,1.41.79,3.49,1.22,6.06-7.16-.73-14.17-2.24-20.96-4.53,2.5-2.66,5.31-5.43,8.46-8.24,3.32-2.96,6.56-5.55,9.62-7.8-.21,1.19-.44,3.08-.3,5.39h0ZM83.93,178.33c-4.27,3.6-10.16,8.76-16.99,15.49-.01,0-.02,0-.04-.02-5.35-2.26-10.44-4.98-15.26-8.13,1.46-1.48,3.68-3.49,6.71-5.34,5.81-3.55,9.54-3.45,17.12-6.16,4.52-1.62,9.43-3.38,13.9-6.81,3.07-2.36,8.26-7.29,11.6-17.05.16,2.7.05,6.59-1.5,10.82-2.6,7.06-7.56,10.47-15.54,17.19h0ZM7.76,104.59c0-6.58.65-13.05,1.93-19.38,4.91,1.41,8.99,1.96,11.89,2.19,10.87.87,16.69-1.7,29.47-.48,3.44.33,6.22.82,7.97,1.17-1.47.93-3.69,2.34-6.33,4.14-5.07,3.45-7.53,5.46-9.71,7.01-6.61,4.7-13.03,6.85-16.63,8.02-4.27,1.39-10.55,2.96-18.4,3.25-.12-1.97-.18-3.94-.18-5.92h0ZM45.43,70.42c-5.39-4.01-13.47-9.03-25.22-13.35,2.47-4.37,5.26-8.54,8.39-12.48,1.12,1.05,2.65,2.42,4.56,3.89,12.7,9.81,21.08,8.38,35.42,14.76,7.43,3.3,21.35,9.49,27.51,23.26,2.43,5.44,2.98,10.54,3.05,14.02-.77-.71-2.1-1.89-3.89-3.16-6.7-4.77-11.8-5.21-20.9-9.12-3.45-1.48-5.81-2.75-8.74-4.33-10.04-5.39-16.21-10.53-20.18-13.48h0ZM55.59,38.15c-1.79-3.06-4.02-7.55-5.65-13.51,2.76-1.89,5.61-3.64,8.56-5.24,2.5,2.9,6.36,7.11,11.53,11.72,1.7,1.52,3.28,2.84,4.69,3.98,3.41,2.75,4.96,3.72,6.61,5.02.78.62,5.51,4.42,8.78,10.17.87,1.53,1.71,3.33,4.29,13.51,1.26,4.99,2.22,9.13,2.87,12.04-2.28-2.43-5.82-5.91-10.61-9.53-3.94-2.98-6.28-4.19-8.99-5.92-3.27-2.09-14.62-9.51-22.08-22.24h0ZM102.29,40.5c2.85-6.77,8.23-12.57,9.85-23.92.49-3.41.5-6.35.39-8.49,3.91.32,7.77.86,11.58,1.64,4.1,25.99-.07,36-5.1,40.13-1.63,1.34-6.51,4.64-10.96,11.05-2.63,3.78-4.18,7.32-5.09,9.76-4.87-14.6-3.24-24.09-.68-30.17h0ZM116.57,60.01c7.21-7.84,16.12-9.52,24.06-21.05,4.96-7.2,7.1-14.7,8.07-20.59,3.78,1.93,7.41,4.11,10.88,6.51-7.16,23.9-17.51,35.73-26.02,42.13-3.47,2.61-8.89,6.01-14.32,12.91-7.2,9.16-10.1,18.99-11.42,25.96-3.68-25.79,2.2-38.77,8.74-45.87h0ZM121.68,87.57c10.3-16.5,29.63-23.99,35.17-26.15,5.14-2,9.78-3.23,16.02-7.46,3.91-2.65,6.9-5.42,9.04-7.68,2.57,3.4,4.91,6.96,7,10.67-2.47,1.37-5.81,3.4-9.47,6.23-4.48,3.46-6.16,5.56-10.73,9.21-.39.32-5.57,4.42-11.58,7.81-11.93,6.73-17.37,5.14-29.35,11.33-5.06,2.61-8.85,5.36-11.17,7.18.82-2.67,2.31-6.73,5.06-11.14h0ZM193.81,66.9c1.96,4.63,3.54,9.37,4.74,14.2-.83.25-1.74.5-2.73.74-2.09.51-6.87,1.55-18.15,1.66-3.38.04-7.83,0-13.07-.3,4.38-2.85,7.7-5.42,9.87-7.18,4.54-3.69,6.28-5.69,10.58-8.91,2.59-1.94,4.94-3.44,6.8-4.55.69,1.43,1.34,2.87,1.96,4.33h0ZM163.18,89.58c10.47-.2,14.62.61,22.75.06,3.33-.22,8.14-.73,14.01-2.04.98,5.57,1.48,11.24,1.48,16.99,0,2.08-.07,4.15-.2,6.2-18.78-2.22-27.49-6.22-31.88-9.82-.9-.74-4.1-3.5-9.09-6.15-4.5-2.39-8.54-3.68-11.31-4.4,3.06-.3,8.05-.71,14.24-.83h0ZM178.02,41.47c-2.03,2.18-4.67,4.61-8.03,6.87-6.47,4.37-12.71,6.2-16.74,7.04,2.53-4.24,5.15-9.24,7.57-14.98,1.71-4.06,3.07-7.91,4.17-11.5,2.8,2.24,5.5,4.65,8.07,7.22,1.73,1.73,3.38,3.51,4.96,5.35h0ZM142.8,15.6c-.23,3.5-1.06,8.5-3.69,13.87-2.58,5.27-5.9,8.85-8.19,10.96.79-13.23.5-18.76,0-21.24-.11-.53-.61-2.88-.73-6.08-.02-.71-.03-1.35-.02-1.93,4.1,1.12,8.14,2.51,12.09,4.19.18.07.35.16.52.23ZM106.58,7.79c.11,1.71.15,4.28-.34,7.32-.97,5.97-3.29,9.52-6.14,15.43-1.52,3.14-3.57,7.76-5.57,13.68-3.5-6.94-7.08-16.41-8.26-27.94-.24-2.33-.36-4.57-.39-6.71,6.12-1.2,12.37-1.8,18.71-1.8.66,0,1.33.01,1.99.02h0ZM79.72,10.99c.08,2.41.28,5.01.66,7.76.78,5.71,2.11,10.67,3.51,14.74-3.11-1.88-6.69-4.37-10.39-7.62-3.72-3.27-6.68-6.55-8.98-9.45.79-.36,1.58-.71,2.38-1.04,4.19-1.77,8.47-3.23,12.82-4.38ZM44.32,28.8c.98,3.07,2.39,6.6,4.42,10.34,3.34,6.13,7.2,10.63,10.27,13.7-5.89-.97-14.53-3.37-22.55-9.8-1.37-1.1-2.61-2.22-3.73-3.35,1.1-1.21,2.23-2.4,3.39-3.57,2.61-2.61,5.34-5.05,8.19-7.32ZM17.19,62.87c5.58,2.29,11.72,5.21,18.15,8.95,4.85,2.83,9.19,5.72,13.02,8.54-2.26,0-5.73,0-9.97.13-8.44.24-10.87.64-15.12.39-2.93-.17-7.05-.68-12-2.18,1.11-4,2.47-7.94,4.11-11.79.58-1.36,1.18-2.71,1.82-4.04h0ZM8.58,117.21c6.68-.35,12.2-1.52,16.24-2.65,6.34-1.77,13.77-3.85,21.06-9.53,2.62-2.04,5.61-4.85,11.22-8.15,3.56-2.1,5.42-3.17,8.15-3.6,1.43-.23,4.27-.46,13.44,3.28,8.49,3.46,12.79,5.27,15.24,8.89,2.38,3.52,2.95,7.37,3.28,9.63.5,3.38.23,5.83-.21,9.63-.76,6.51-1.42,12.16-5.03,17.81-.27.43-2.2,3.4-5.35,6.13-13.5,11.73-31.87,3.87-53.39,15.39-1.4.75-2.58,1.46-3.45,2-5.92-7.19-10.76-15.16-14.4-23.79-3.4-8.05-5.67-16.44-6.79-25.06h0ZM34.27,171.15c6.7-5.9,14.46-5.83,25.96-7.41,12.66-1.74,20.04-2.83,27.64-7.93,3.54-2.38,6.09-4.92,7.73-6.78-2.81,6.22-6.27,9.84-8.67,11.89-10.7,9.17-22.53,6.37-36.96,17.41-1.71,1.31-3.06,2.5-3.97,3.36-3.46-2.64-6.76-5.51-9.88-8.63-.63-.63-1.24-1.26-1.85-1.91h0ZM101.02,201.34c-.28-1.82-.7-4.36-1.33-7.35-.91-4.36-1.73-7.23-1.94-8.09-.94-3.85-.15-10.24,7.67-21.35-.58,7.62,1.47,12.94,2.69,15.5,3.06,6.43,8.59,11.63,11.89,13.54.69.4,3.76,2.09,7.27,5.14h0c-7.37,1.77-14.96,2.67-22.68,2.67-1.2,0-2.38-.03-3.57-.07h0ZM135.69,196.31c-1.2-1.04-2.86-2.38-4.94-3.78-3.69-2.48-5.55-3.01-8.56-5.25,0,0-3.26-2.43-5.85-5.69-5.96-7.48-4.93-18.64-4.57-21.66,7.9,11.15,15.49,15.24,21.09,16.88,3.94,1.16,10.31,2.09,17.6,6.86,1.89,1.24,3.45,2.47,4.67,3.54-4.1,2.51-8.39,4.72-12.85,6.61-2.17.92-4.37,1.75-6.59,2.51h0ZM160.26,183.82c-1.23-1.32-2.94-2.94-5.16-4.51-4.75-3.36-8.39-4.05-14.12-6.17-4.87-1.8-10.88-4.02-15.72-7.64-3.3-2.47-8.04-7.07-11.54-15.86,2.25,2.34,5.81,5.55,10.8,8.28,6.09,3.33,11.22,4.24,19.66,5.67,13.6,2.29,19.27,1.19,28.87,5.69.92.43,1.74.85,2.44,1.23-.8.86-1.61,1.71-2.44,2.54-3.98,3.98-8.25,7.57-12.79,10.77h0ZM179.6,165.82c-.19-.12-.38-.25-.59-.39-13.05-8.47-24.06-5.6-38.74-9.28-8.81-2.21-15.4-3.86-20.48-9.57-9.72-10.9-10.57-32.78,1.48-43.89,7.68-7.09,17.86-7.23,18.8-7.23,6.87,0,12.35,2.73,16.06,4.58,4,2,4.1,2.75,8.83,5.69,11.64,7.22,22.29,9.6,25.28,10.22,2.58.53,6.09,1.1,10.35,1.33-1.12,8.6-3.38,16.97-6.78,25-3.61,8.53-8.37,16.42-14.21,23.54h0Z"/>
  </g>
</svg>